# This file uses centimeters as units for non-parametric coordinates.

mtllib Ball_Low.mtl
g default
v 0.249787 -0.897244 -0.344219
v 0.095491 -0.903279 -0.424816
v -0.095492 -0.905487 -0.382339
v -0.250000 -0.905846 -0.263180
v -0.309017 -0.930480 -0.088550
v -0.252873 -0.963438 0.077066
v -0.116123 -0.965110 0.145357
v 0.061924 -0.932687 0.107968
v 0.229155 -0.902006 0.005403
v 0.303676 -0.882101 -0.156505
v 0.474546 -0.739988 -0.428541
v 0.181636 -0.745136 -0.574113
v -0.181636 -0.749311 -0.563314
v -0.475528 -0.748987 -0.348062
v -0.587785 -0.807439 -0.019192
v -0.475528 -0.812831 0.325165
v -0.184509 -0.811418 0.539576
v 0.148068 -0.807790 0.457439
v 0.471622 -0.723681 0.298659
v 0.576305 -0.747852 -0.027520
v 0.654509 -0.568329 -0.487608
v 0.250000 -0.498269 -0.733273
v -0.250000 -0.523862 -0.751243
v -0.654509 -0.523862 -0.457351
v -0.809017 -0.587785 0.000000
v -0.654509 -0.587785 0.475528
v -0.238698 -0.587785 0.757220
v 0.243016 -0.587785 0.753261
v 0.661950 -0.494053 0.397086
v 0.797537 -0.530919 0.000000
v 0.769421 -0.300163 -0.567956
v 0.293893 -0.273243 -0.921280
v -0.293893 -0.294512 -0.884508
v -0.769421 -0.296509 -0.570682
v -0.954842 -0.303348 0.000000
v -0.773303 -0.303204 0.559017
v -0.239569 -0.309017 0.845864
v 0.288189 -0.309017 0.870357
v 0.805185 -0.266834 0.482216
v 0.948668 -0.297186 0.000000
v 0.839754 0.045297 -0.621127
v 0.309017 0.014629 -1.002179
v -0.309017 0.009424 -0.884268
v -0.809017 0.009424 -0.670462
v -1.018195 0.027249 0.000000
v -0.814223 0.027249 0.582137
v -0.254694 0.000000 0.892412
v 0.281605 0.000000 0.786911
v 0.844781 -0.035640 0.571806
v 1.000000 0.000000 0.000000
v 0.917154 0.354314 -0.545191
v 0.293893 0.354314 -0.960965
v -0.293893 0.354314 -0.873938
v -0.769421 0.354314 -0.677912
v -0.999144 0.335118 0.000000
v -0.725185 0.336266 0.531868
v -0.282590 0.309017 0.892307
v 0.266480 0.309017 0.740363
v 0.776862 0.309333 0.570443
v 0.951057 0.309017 0.000000
v 0.802241 0.627646 -0.461702
v 0.250000 0.597933 -0.815154
v -0.250000 0.592780 -0.799279
v -0.654509 0.597726 -0.536483
v -0.970889 0.574368 0.000000
v -0.610272 0.558689 0.448379
v -0.250000 0.552636 0.769421
v 0.244297 0.541789 0.735269
v 0.654509 0.625010 0.542003
v 0.776657 0.586981 0.013345
v 0.486112 0.685373 -0.370413
v 0.181636 0.685373 -0.604750
v -0.181636 0.685373 -0.604750
v -0.487825 0.684901 -0.391225
v -0.739665 0.647195 -0.000355
v -0.486217 0.656176 0.339843
v -0.181654 0.640104 0.559017
v 0.181636 0.648098 0.566665
v 0.462216 0.709801 0.417527
v 0.432251 0.660577 0.083165
v 0.154402 0.814090 -0.173978
v 0.082180 0.827412 -0.334064
v -0.095492 0.827412 -0.339626
v -0.252664 0.809519 -0.209407
v -0.338910 0.783374 -0.002430
v -0.252664 0.782013 0.181636
v -0.095492 0.782115 0.293893
v 0.082180 0.783408 0.300687
v 0.154402 0.788135 0.227315
v 0.153482 0.786248 0.060810
v -0.006984 -0.979975 -0.131821
v -0.032360 0.839913 0.004581
vt 0.000000 0.100000
vt 0.100000 0.100000
vt 0.200000 0.100000
vt 0.300000 0.100000
vt 0.400000 0.100000
vt 0.500000 0.100000
vt 0.600000 0.100000
vt 0.700000 0.100000
vt 0.800000 0.100000
vt 0.900000 0.100000
vt 1.000000 0.100000
vt 0.000000 0.200000
vt 0.100000 0.200000
vt 0.200000 0.200000
vt 0.300000 0.200000
vt 0.400000 0.200000
vt 0.500000 0.200000
vt 0.600000 0.200000
vt 0.700000 0.200000
vt 0.800000 0.200000
vt 0.900000 0.200000
vt 1.000000 0.200000
vt 0.000000 0.300000
vt 0.100000 0.300000
vt 0.200000 0.300000
vt 0.300000 0.300000
vt 0.400000 0.300000
vt 0.500000 0.300000
vt 0.600000 0.300000
vt 0.700000 0.300000
vt 0.800000 0.300000
vt 0.900000 0.300000
vt 1.000000 0.300000
vt 0.000000 0.400000
vt 0.100000 0.400000
vt 0.200000 0.400000
vt 0.300000 0.400000
vt 0.400000 0.400000
vt 0.500000 0.400000
vt 0.600000 0.400000
vt 0.700000 0.400000
vt 0.800000 0.400000
vt 0.900000 0.400000
vt 1.000000 0.400000
vt 0.000000 0.500000
vt 0.100000 0.500000
vt 0.200000 0.500000
vt 0.300000 0.500000
vt 0.400000 0.500000
vt 0.500000 0.500000
vt 0.600000 0.500000
vt 0.700000 0.500000
vt 0.800000 0.500000
vt 0.900000 0.500000
vt 1.000000 0.500000
vt 0.000000 0.600000
vt 0.100000 0.600000
vt 0.200000 0.600000
vt 0.300000 0.600000
vt 0.400000 0.600000
vt 0.500000 0.600000
vt 0.600000 0.600000
vt 0.700000 0.600000
vt 0.800000 0.600000
vt 0.900000 0.600000
vt 1.000000 0.600000
vt 0.000000 0.700000
vt 0.100000 0.700000
vt 0.200000 0.700000
vt 0.300000 0.700000
vt 0.400000 0.700000
vt 0.500000 0.700000
vt 0.600000 0.700000
vt 0.700000 0.700000
vt 0.800000 0.700000
vt 0.900000 0.700000
vt 1.000000 0.700000
vt 0.000000 0.800000
vt 0.100000 0.800000
vt 0.200000 0.800000
vt 0.300000 0.800000
vt 0.400000 0.800000
vt 0.500000 0.800000
vt 0.600000 0.800000
vt 0.700000 0.800000
vt 0.800000 0.800000
vt 0.900000 0.800000
vt 1.000000 0.800000
vt 0.000000 0.900000
vt 0.100000 0.900000
vt 0.200000 0.900000
vt 0.300000 0.900000
vt 0.400000 0.900000
vt 0.500000 0.900000
vt 0.600000 0.900000
vt 0.700000 0.900000
vt 0.800000 0.900000
vt 0.900000 0.900000
vt 1.000000 0.900000
vt 0.050000 0.000000
vt 0.150000 0.000000
vt 0.250000 0.000000
vt 0.350000 0.000000
vt 0.450000 0.000000
vt 0.550000 0.000000
vt 0.650000 0.000000
vt 0.750000 0.000000
vt 0.850000 0.000000
vt 0.950000 0.000000
vt 0.050000 1.000000
vt 0.150000 1.000000
vt 0.250000 1.000000
vt 0.350000 1.000000
vt 0.450000 1.000000
vt 0.550000 1.000000
vt 0.650000 1.000000
vt 0.750000 1.000000
vt 0.850000 1.000000
vt 0.950000 1.000000
vn 0.390523 -0.866964 -0.309622
vn 0.088690 -0.816115 -0.571043
vn 0.164251 -0.646478 -0.745042
vn 0.520978 -0.739734 -0.425882
vn -0.200322 -0.829017 -0.522113
vn -0.224175 -0.683136 -0.695033
vn -0.370328 -0.852759 -0.368319
vn -0.527930 -0.718135 -0.453401
vn -0.409108 -0.904069 -0.123649
vn -0.627574 -0.776373 -0.058275
vn -0.302232 -0.937167 0.174280
vn -0.487599 -0.796971 0.356489
vn -0.019293 -0.950367 0.310531
vn -0.125892 -0.822469 0.554704
vn 0.250989 -0.929649 0.269736
vn 0.279872 -0.839934 0.464954
vn 0.364295 -0.912424 0.186470
vn 0.514037 -0.784781 0.346244
vn 0.444583 -0.895738 0.000058
vn 0.610082 -0.790799 0.049369
vn 0.218731 -0.579660 -0.784953
vn 0.645483 -0.605538 -0.465485
vn -0.231229 -0.604938 -0.761960
vn -0.646879 -0.584562 -0.489730
vn -0.815423 -0.578705 -0.013658
vn -0.661032 -0.541375 0.519567
vn -0.240786 -0.535742 0.809323
vn 0.314105 -0.593559 0.740963
vn 0.648832 -0.601122 0.466551
vn 0.789193 -0.613719 0.022885
vn 0.256437 -0.355569 -0.898783
vn 0.758113 -0.362191 -0.542293
vn -0.273513 -0.350644 -0.895678
vn -0.760833 -0.340928 -0.552178
vn -0.949635 -0.313354 0.001621
vn -0.744508 -0.270192 0.610495
vn -0.250517 -0.190528 0.949179
vn 0.315611 -0.215291 0.924142
vn 0.760030 -0.313083 0.569503
vn 0.935037 -0.353243 -0.030414
vn 0.248401 -0.048167 -0.967459
vn 0.791208 -0.079240 -0.606392
vn -0.288327 -0.047358 -0.956360
vn -0.778862 -0.060774 -0.624244
vn -0.999781 -0.020626 0.003557
vn -0.773410 -0.001377 0.633904
vn -0.206503 0.029267 0.978008
vn 0.290753 0.058513 0.955007
vn 0.752022 0.031393 0.658390
vn 0.998197 -0.059146 0.010182
vn 0.245062 0.253631 -0.935744
vn 0.824441 0.263758 -0.500728
vn -0.268377 0.223916 -0.936929
vn -0.735609 0.217648 -0.641490
vn -0.970013 0.242524 0.016020
vn -0.730816 0.267503 0.627973
vn -0.222145 0.229027 0.947733
vn 0.280438 0.142180 0.949284
vn 0.733451 0.251187 0.631629
vn 0.963458 0.250763 0.094159
vn 0.210882 0.663656 -0.717697
vn 0.593842 0.735172 -0.326917
vn -0.207105 0.653456 -0.728082
vn -0.580876 0.662737 -0.472613
vn -0.794605 0.606333 0.031047
vn -0.569220 0.632336 0.525490
vn -0.207377 0.603397 0.770004
vn 0.206568 0.473857 0.856031
vn 0.602646 0.619039 0.503596
vn 0.674574 0.730606 0.105661
vn 0.111400 0.934112 -0.339153
vn 0.235512 0.968253 -0.083791
vn -0.127293 0.914307 -0.384499
vn -0.300167 0.929716 -0.213374
vn -0.343443 0.938043 0.046064
vn -0.301799 0.906058 0.296610
vn -0.128517 0.899566 0.417451
vn 0.031667 0.888848 0.457107
vn 0.215926 0.964062 0.154794
vn 0.313909 0.949410 0.009099
vn 0.161981 0.937085 -0.309248
vn 0.346603 0.937733 -0.022891
vn -0.129811 0.933075 -0.335439
vn -0.294154 0.941835 -0.162546
vn -0.324198 0.944921 0.044950
vn -0.267192 0.927916 0.259961
vn -0.125761 0.915885 0.381234
vn 0.015929 0.920473 0.390480
vn 0.235329 0.967039 0.097245
vn 0.372731 0.927624 0.024171
vn 0.062379 -0.994942 -0.078729
vn -0.015167 0.997154 0.073849
s 1
g pSphere1
usemtl initialShadingGroup
f 1/1/1 2/2/2 12/13/3 11/12/4
f 2/2/2 3/3/5 13/14/6 12/13/3
f 3/3/5 4/4/7 14/15/8 13/14/6
f 4/4/7 5/5/9 15/16/10 14/15/8
f 5/5/9 6/6/11 16/17/12 15/16/10
f 6/6/11 7/7/13 17/18/14 16/17/12
f 7/7/13 8/8/15 18/19/16 17/18/14
f 8/8/15 9/9/17 19/20/18 18/19/16
f 9/9/17 10/10/19 20/21/20 19/20/18
f 10/10/19 1/11/1 11/22/4 20/21/20
f 11/12/4 12/13/3 22/24/21 21/23/22
f 12/13/3 13/14/6 23/25/23 22/24/21
f 13/14/6 14/15/8 24/26/24 23/25/23
f 14/15/8 15/16/10 25/27/25 24/26/24
f 15/16/10 16/17/12 26/28/26 25/27/25
f 16/17/12 17/18/14 27/29/27 26/28/26
f 17/18/14 18/19/16 28/30/28 27/29/27
f 18/19/16 19/20/18 29/31/29 28/30/28
f 19/20/18 20/21/20 30/32/30 29/31/29
f 20/21/20 11/22/4 21/33/22 30/32/30
f 21/23/22 22/24/21 32/35/31 31/34/32
f 22/24/21 23/25/23 33/36/33 32/35/31
f 23/25/23 24/26/24 34/37/34 33/36/33
f 24/26/24 25/27/25 35/38/35 34/37/34
f 25/27/25 26/28/26 36/39/36 35/38/35
f 26/28/26 27/29/27 37/40/37 36/39/36
f 27/29/27 28/30/28 38/41/38 37/40/37
f 28/30/28 29/31/29 39/42/39 38/41/38
f 29/31/29 30/32/30 40/43/40 39/42/39
f 30/32/30 21/33/22 31/44/32 40/43/40
f 31/34/32 32/35/31 42/46/41 41/45/42
f 32/35/31 33/36/33 43/47/43 42/46/41
f 33/36/33 34/37/34 44/48/44 43/47/43
f 34/37/34 35/38/35 45/49/45 44/48/44
f 35/38/35 36/39/36 46/50/46 45/49/45
f 36/39/36 37/40/37 47/51/47 46/50/46
f 37/40/37 38/41/38 48/52/48 47/51/47
f 38/41/38 39/42/39 49/53/49 48/52/48
f 39/42/39 40/43/40 50/54/50 49/53/49
f 40/43/40 31/44/32 41/55/42 50/54/50
f 41/45/42 42/46/41 52/57/51 51/56/52
f 42/46/41 43/47/43 53/58/53 52/57/51
f 43/47/43 44/48/44 54/59/54 53/58/53
f 44/48/44 45/49/45 55/60/55 54/59/54
f 45/49/45 46/50/46 56/61/56 55/60/55
f 46/50/46 47/51/47 57/62/57 56/61/56
f 47/51/47 48/52/48 58/63/58 57/62/57
f 48/52/48 49/53/49 59/64/59 58/63/58
f 49/53/49 50/54/50 60/65/60 59/64/59
f 50/54/50 41/55/42 51/66/52 60/65/60
f 51/56/52 52/57/51 62/68/61 61/67/62
f 52/57/51 53/58/53 63/69/63 62/68/61
f 53/58/53 54/59/54 64/70/64 63/69/63
f 54/59/54 55/60/55 65/71/65 64/70/64
f 55/60/55 56/61/56 66/72/66 65/71/65
f 56/61/56 57/62/57 67/73/67 66/72/66
f 57/62/57 58/63/58 68/74/68 67/73/67
f 58/63/58 59/64/59 69/75/69 68/74/68
f 59/64/59 60/65/60 70/76/70 69/75/69
f 60/65/60 51/66/52 61/77/62 70/76/70
f 61/67/62 62/68/61 72/79/71 71/78/72
f 62/68/61 63/69/63 73/80/73 72/79/71
f 63/69/63 64/70/64 74/81/74 73/80/73
f 64/70/64 65/71/65 75/82/75 74/81/74
f 65/71/65 66/72/66 76/83/76 75/82/75
f 66/72/66 67/73/67 77/84/77 76/83/76
f 67/73/67 68/74/68 78/85/78 77/84/77
f 68/74/68 69/75/69 79/86/79 78/85/78
f 69/75/69 70/76/70 80/87/80 79/86/79
f 70/76/70 61/77/62 71/88/72 80/87/80
f 71/78/72 72/79/71 82/90/81 81/89/82
f 72/79/71 73/80/73 83/91/83 82/90/81
f 73/80/73 74/81/74 84/92/84 83/91/83
f 74/81/74 75/82/75 85/93/85 84/92/84
f 75/82/75 76/83/76 86/94/86 85/93/85
f 76/83/76 77/84/77 87/95/87 86/94/86
f 77/84/77 78/85/78 88/96/88 87/95/87
f 78/85/78 79/86/79 89/97/89 88/96/88
f 79/86/79 80/87/80 90/98/90 89/97/89
f 80/87/80 71/88/72 81/99/82 90/98/90
f 2/2/2 1/1/1 91/100/91
f 3/3/5 2/2/2 91/101/91
f 4/4/7 3/3/5 91/102/91
f 5/5/9 4/4/7 91/103/91
f 6/6/11 5/5/9 91/104/91
f 7/7/13 6/6/11 91/105/91
f 8/8/15 7/7/13 91/106/91
f 9/9/17 8/8/15 91/107/91
f 10/10/19 9/9/17 91/108/91
f 1/11/1 10/10/19 91/109/91
f 81/89/82 82/90/81 92/110/92
f 82/90/81 83/91/83 92/111/92
f 83/91/83 84/92/84 92/112/92
f 84/92/84 85/93/85 92/113/92
f 85/93/85 86/94/86 92/114/92
f 86/94/86 87/95/87 92/115/92
f 87/95/87 88/96/88 92/116/92
f 88/96/88 89/97/89 92/117/92
f 89/97/89 90/98/90 92/118/92
f 90/98/90 81/99/82 92/119/92
